<?xml version="1.0" standalone="no"?> <!DOCTYPE svg PUBLIC "-//W3C//DTD SVG 20010904//EN" "http://www.w3.org/TR/2001/REC-SVG-20010904/DTD/svg10.dtd"> <svg version="1.0" xmlns="http://www.w3.org/2000/svg" width="600.000000pt" height="600.000000pt" viewBox="0 0 600.000000 600.000000" preserveAspectRatio="xMidYMid meet"> <g transform="translate(0.000000,600.000000) scale(0.100000,-0.100000)" fill="#801013" stroke="none"> <path d="M4425 5283 c-33 -2 -841 -4 -1795 -5 l-1735 -3 -41 -22 c-53 -28 -111 -96 -124 -144 -7 -24 -9 -776 -8 -2170 l3 -2134 23 -38 c13 -20 32 -42 42 -47 12 -7 789 -10 2215 -10 l2197 0 34 37 c19 20 36 50 39 67 3 17 4 994 3 2171 l-3 2140 -22 41 c-29 54 -83 101 -132 114 -36 9 -512 11 -696 3z m665 -131 c60 -32 67 -59 74 -275 12 -389 18 -3952 7 -3993 -12 -45 -54 -90 -91 -98 -25 -5 -1735 -14 -3320 -18 -764 -1 -827 0 -858 16 -66 34 -61 -122 -63 2175 l-1 2091 21 34 c12 18 34 38 49 44 29 11 599 17 2567 28 622 4 1132 8 1134 10 2 2 104 4 225 4 195 0 225 -2 256 -18z"/> <path d="M3330 5089 c-745 -3 -1573 -6 -1840 -7 -543 -2 -537 -1 -572 -72 -17 -33 -18 -151 -18 -2050 0 -1939 1 -2017 19 -2056 13 -28 30 -46 57 -60 38 -18 70 -19 874 -19 1420 1 2196 6 2175 15 -12 5 187 9 470 9 305 1 504 5 527 11 24 7 48 24 65 47 l28 37 -2 710 c-2 391 -6 1301 -9 2021 -7 1437 -3 1362 -67 1401 -38 23 146 21 -1707 13z m1698 -57 c18 -18 20 -39 26 -383 5 -324 12 -3215 8 -3576 -2 -138 -3 -143 -25 -158 -21 -14 -155 -15 -1168 -15 -629 0 -1530 -5 -2001 -10 -613 -8 -863 -8 -877 0 -11 6 -26 20 -32 33 -10 17 -12 494 -12 2033 1 1107 4 2021 8 2033 3 11 16 27 28 33 31 18 398 22 2348 27 1660 3 1677 3 1697 -17z m-1186 -4159 c-272 -2 -713 -2 -980 0 -268 1 -46 2 493 2 539 0 758 -1 487 -2z"/> <path d="M4287 4793 c-13 -15 -15 -34 -10 -109 5 -85 4 -93 -17 -114 -33 -33 -75 -22 -168 43 -106 75 -169 111 -228 131 -48 16 -84 14 -84 -4 0 -14 65 -66 126 -100 282 -160 377 -303 378 -570 1 -168 -44 -307 -140 -432 -64 -83 -189 -168 -247 -168 -19 0 -20 4 -13 83 3 45 11 156 16 247 6 91 17 226 26 300 16 145 16 311 -1 317 -6 2 -21 -17 -33 -42 -19 -39 -26 -45 -53 -45 -31 0 -82 42 -135 111 -38 50 -104 68 -104 27 0 -24 30 -66 107 -150 92 -100 120 -189 61 -196 -31 -4 -52 16 -110 103 -81 121 -179 198 -211 166 -8 -8 -1 -21 26 -49 20 -21 37 -46 37 -56 0 -17 -6 -18 -52 -12 -157 20 -160 20 -156 1 2 -10 61 -54 138 -102 253 -158 330 -271 330 -488 0 -97 -32 -236 -67 -293 -102 -165 -234 -123 -363 114 -59 109 -126 194 -154 194 -7 0 -19 -7 -26 -15 -11 -13 -2 -37 49 -146 70 -146 101 -229 101 -269 0 -31 30 -96 59 -127 11 -12 28 -40 37 -63 32 -79 72 -79 184 1 74 53 208 124 375 199 81 36 229 127 281 173 130 114 272 379 335 622 24 90 36 262 20 285 -8 12 -12 12 -29 -3 -22 -20 -38 -59 -76 -187 -39 -129 -83 -186 -101 -130 -4 12 -4 116 0 233 8 246 -8 408 -47 486 -26 52 -38 59 -61 34z"/> <path d="M1663 4778 c-57 -71 -73 -235 -59 -583 8 -179 3 -211 -29 -185 -25 21 -44 64 -86 189 -38 115 -66 160 -89 146 -19 -12 -6 -203 21 -295 54 -189 180 -437 258 -507 13 -13 20 -23 15 -23 -17 0 84 -93 148 -136 83 -55 348 -184 380 -184 22 0 63 -19 43 -20 -5 0 17 -15 50 -33 106 -57 152 -95 211 -174 l59 -78 0 -213 c0 -116 2 -212 5 -212 3 0 23 18 44 39 31 32 36 42 28 58 -9 16 -16 149 -13 252 1 29 3 32 17 20 24 -19 39 -55 69 -159 41 -147 70 -180 155 -180 108 0 150 149 54 195 -39 18 -63 14 -90 -16 -14 -15 -16 -24 -8 -36 16 -25 34 -27 34 -4 0 28 34 45 60 31 59 -32 38 -140 -27 -140 -52 0 -82 38 -119 147 -26 78 -63 146 -91 170 l-26 21 27 32 c34 41 54 80 71 139 27 91 21 126 -25 151 -14 8 -16 2 -12 -51 3 -33 -1 -87 -8 -120 -13 -61 -68 -159 -79 -141 -3 6 -3 66 0 134 6 110 12 137 53 261 25 75 72 194 103 263 44 98 54 130 46 142 -29 48 -78 5 -159 -141 -119 -212 -153 -247 -239 -247 -69 0 -118 40 -160 132 -52 113 -69 290 -40 403 36 135 102 209 314 349 170 112 173 134 13 101 -101 -21 -118 -5 -62 58 35 40 38 57 10 57 -52 0 -105 -49 -190 -173 -29 -43 -63 -85 -74 -93 -32 -22 -55 -17 -62 12 -9 36 21 96 88 173 117 136 132 171 77 171 -32 0 -39 -6 -137 -114 -36 -40 -47 -47 -75 -44 -26 2 -36 11 -55 46 -13 23 -27 42 -32 42 -24 0 -23 -112 5 -320 8 -58 20 -175 25 -260 6 -85 18 -202 26 -259 8 -58 14 -106 14 -108 0 -2 -12 -3 -27 -3 -48 0 -135 52 -209 126 -142 141 -218 375 -185 570 37 220 116 323 360 470 127 77 172 133 95 121 -57 -10 -155 -60 -254 -131 -95 -68 -121 -80 -161 -74 -39 5 -51 42 -43 136 4 58 2 87 -6 97 -15 18 -34 19 -47 3z m515 -1359 c2 -19 8 -39 13 -46 7 -7 6 -13 -1 -18 -5 -3 -10 -1 -10 4 0 6 -13 11 -30 11 -35 0 -35 2 -12 51 20 46 36 45 40 -2z"/> <path d="M3234 3160 c-30 -12 -60 -53 -81 -113 -14 -40 -18 -83 -18 -187 0 -146 11 -203 49 -246 55 -65 109 14 118 174 l5 82 -39 0 c-21 0 -41 0 -45 0 -5 1 -9 -8 -11 -20 -3 -16 1 -19 20 -18 22 3 23 0 26 -82 3 -86 -11 -132 -35 -117 -39 24 -51 297 -19 417 24 94 53 105 71 29 8 -33 13 -40 18 -26 16 42 3 99 -25 110 -7 2 -23 1 -34 -3z"/> <path d="M2815 3122 c12 -30 17 -235 7 -312 -5 -41 -9 -75 -8 -76 0 -1 18 1 39 4 31 3 37 8 31 21 -12 27 -16 212 -7 283 l9 66 -39 16 c-36 14 -38 14 -32 -2z"/> <path d="M3950 3106 c-14 -8 -65 -21 -115 -31 -53 -10 -113 -29 -145 -46 -77 -41 -169 -115 -180 -145 -12 -30 -13 -74 -2 -74 4 0 31 17 59 39 62 46 138 85 155 78 19 -7 -83 -102 -141 -132 -57 -28 -71 -48 -71 -99 0 -37 16 -49 27 -21 7 20 49 41 127 67 188 61 327 194 343 328 5 45 4 50 -13 50 -10 -1 -30 -7 -44 -14z"/> <path d="M3078 3103 c-13 -3 -15 -10 -7 -36 11 -40 12 -304 1 -292 -10 11 -30 76 -71 222 -26 97 -27 98 -59 101 -31 3 -33 2 -23 -17 14 -26 14 -296 1 -322 -8 -15 -7 -19 4 -19 8 0 22 -3 31 -7 15 -5 16 -3 6 15 -6 12 -11 66 -10 124 l0 103 29 -90 c15 -49 42 -140 60 -202 24 -83 37 -114 51 -118 29 -9 42 4 23 22 -14 14 -15 46 -12 247 2 163 7 238 16 254 11 19 11 22 -5 21 -10 -1 -25 -3 -35 -6z"/> <path d="M2010 3068 c0 -45 49 -146 91 -186 70 -70 161 -121 267 -153 95 -28 111 -38 139 -87 30 -51 46 -44 46 20 0 62 -15 82 -89 120 -110 55 -203 151 -125 128 41 -11 68 -27 134 -76 63 -47 77 -48 77 -8 0 38 -13 57 -72 102 -93 71 -195 120 -278 132 -41 6 -95 18 -119 26 -64 20 -71 19 -71 -18z"/> <path d="M3323 3084 c-3 -8 0 -26 7 -39 7 -13 10 -32 6 -41 -6 -16 -5 -16 14 1 20 18 26 49 14 79 -8 21 -33 21 -41 0z"/> <path d="M3373 2975 c-27 -19 -46 -75 -37 -111 3 -16 28 -63 55 -104 54 -84 69 -147 47 -190 -11 -20 -21 -25 -53 -25 -32 0 -42 5 -54 26 -30 53 14 116 49 69 19 -25 40 -20 40 9 0 26 -20 41 -56 41 -41 0 -64 -30 -64 -83 0 -52 35 -87 88 -87 52 0 86 28 101 82 15 55 -2 118 -53 187 -38 51 -66 109 -66 136 0 8 9 24 20 35 16 16 25 18 40 10 26 -14 26 -46 -1 -53 -30 -8 -18 -32 17 -32 26 0 29 4 32 33 6 61 -53 93 -105 57z"/> <path d="M3161 2509 c12 -24 3 -440 -11 -490 l-8 -28 101 6 c56 3 105 8 109 12 4 3 11 25 16 49 10 44 0 56 -18 22 -13 -24 -53 -46 -103 -55 l-37 -7 0 113 c0 139 16 337 30 373 9 26 9 26 -41 26 -48 0 -49 -1 -38 -21z"/> <path d="M2674 2495 c-23 -35 -33 -89 -34 -175 0 -134 40 -318 85 -386 34 -52 84 -64 101 -26 8 17 16 280 9 291 -2 4 -24 5 -49 3 -41 -4 -46 -7 -46 -28 0 -25 15 -33 23 -11 10 28 27 -12 41 -101 16 -99 13 -125 -13 -120 -58 11 -128 485 -79 534 16 17 18 17 37 0 10 -9 24 -37 30 -62 6 -24 15 -44 20 -44 13 0 -9 113 -26 132 -25 27 -79 24 -99 -7z"/> <path d="M3052 2474 c5 -20 8 -114 6 -210 l-3 -174 38 0 c36 0 37 1 30 28 -5 15 -8 109 -7 210 l0 182 -37 0 -37 0 10 -36z"/> <path d="M3276 2453 c7 -48 -12 -301 -25 -336 -6 -15 -8 -27 -6 -27 2 0 30 11 61 25 31 14 63 25 70 25 8 0 16 10 18 23 13 64 15 87 6 87 -6 0 -10 -6 -10 -13 0 -21 -50 -87 -66 -87 -13 0 -14 12 -9 83 8 106 23 219 31 240 5 14 -1 17 -35 17 l-41 0 6 -37z"/> <path d="M2935 2465 c-5 -2 -32 -6 -58 -10 -41 -5 -46 -9 -36 -21 16 -19 32 -422 20 -488 -5 -27 -5 -46 1 -46 23 0 79 31 73 40 -10 16 -24 224 -16 233 11 12 36 -23 56 -78 23 -63 68 -136 92 -151 10 -6 39 -15 63 -19 25 -4 65 -18 89 -31 49 -27 74 -30 88 -11 16 20 21 53 11 71 -9 15 -12 15 -33 -8 -30 -33 -62 -33 -124 -1 -56 28 -92 67 -128 139 -14 28 -37 63 -51 79 l-26 27 26 28 c34 35 48 72 48 128 0 53 -23 114 -44 114 -8 0 -20 2 -28 4 -7 3 -17 3 -23 1z m19 -30 c45 -45 25 -223 -27 -233 -15 -3 -17 8 -17 116 0 136 7 154 44 117z"/> <path d="M2903 1869 c-57 -22 -93 -59 -93 -94 0 -32 39 -85 88 -119 37 -26 55 -31 116 -34 58 -3 81 0 112 16 110 56 149 148 87 204 -55 50 -214 64 -310 27z"/> <path d="M1680 1476 c-106 -29 -190 -118 -190 -202 0 -34 5 -47 26 -63 38 -30 71 -26 110 13 26 26 34 42 34 70 0 23 -5 36 -13 36 -9 0 -12 -9 -9 -28 5 -39 -32 -84 -67 -80 -22 3 -26 8 -29 42 -5 54 13 90 70 141 73 66 168 81 250 39 80 -41 76 -211 -7 -320 -43 -57 -115 -81 -165 -54 -18 10 -17 14 20 83 34 62 44 73 75 80 43 11 46 27 5 27 -16 0 -30 2 -30 5 0 19 55 123 73 137 31 23 15 33 -23 13 -31 -16 -86 -91 -96 -132 -4 -14 -14 -23 -24 -23 -26 0 -34 -17 -14 -28 14 -8 12 -16 -15 -70 -17 -34 -33 -62 -36 -62 -2 0 -15 5 -29 11 -34 16 -93 3 -107 -22 -25 -48 56 -78 122 -44 26 14 35 14 83 0 43 -13 63 -14 95 -5 62 16 122 68 153 132 103 207 -34 367 -262 304z m-89 -387 c20 -10 20 -11 2 -24 -21 -17 -69 -19 -78 -5 -9 15 14 40 37 40 11 0 28 -5 39 -11z"/> <path d="M2485 1483 c-94 -25 -149 -160 -90 -218 13 -14 29 -25 35 -25 13 0 13 2 -5 36 -42 82 15 190 96 182 54 -5 58 -26 24 -124 -47 -136 -104 -235 -148 -259 -42 -23 -43 -39 -3 -43 55 -7 111 78 170 261 l33 99 16 -84 c10 -45 17 -122 17 -170 0 -79 2 -88 18 -88 15 0 26 21 50 95 32 98 102 246 130 279 9 10 30 24 45 31 25 10 26 13 12 25 -41 34 -98 -33 -160 -187 l-43 -107 -7 60 c-9 91 -46 194 -75 216 -27 20 -82 30 -115 21z"/> <path d="M2944 1470 c-20 -13 -46 -48 -68 -90 -21 -39 -40 -70 -44 -70 -4 0 -7 -12 -8 -28 0 -15 -19 -70 -41 -122 -40 -93 -41 -109 -6 -110 6 0 21 25 33 56 23 64 72 139 98 153 10 5 24 6 31 1 11 -6 7 -22 -18 -75 -44 -96 -40 -135 14 -135 8 0 30 14 50 31 25 22 35 27 35 16 0 -47 67 -61 104 -23 l24 23 11 -23 c13 -30 47 -31 78 -2 l23 21 0 -22 c0 -17 4 -22 16 -17 9 3 19 6 23 6 4 0 13 17 19 38 16 54 79 150 103 157 37 12 40 -9 9 -74 -17 -34 -30 -73 -30 -85 0 -51 52 -61 95 -18 36 35 78 102 70 110 -4 4 -10 0 -15 -8 -25 -45 -72 -100 -85 -100 -22 0 -18 34 11 91 15 31 24 63 22 82 -3 28 -7 32 -34 35 -22 2 -40 -5 -64 -25 -29 -24 -32 -25 -21 -5 11 20 9 22 -12 22 -20 0 -29 -11 -51 -63 -43 -102 -116 -175 -116 -116 0 12 15 56 34 99 19 43 32 81 29 84 -3 2 -17 0 -31 -5 -17 -7 -29 -6 -36 1 -33 33 -109 -11 -152 -88 -44 -77 -74 -112 -95 -112 -25 0 -24 7 11 82 32 68 37 97 18 116 -20 20 -54 14 -89 -15 l-32 -27 14 26 c8 15 36 43 63 62 27 19 57 47 67 63 23 35 25 89 3 97 -22 9 -26 8 -60 -14z m51 -32 c-11 -36 -53 -96 -75 -108 -24 -13 -25 -4 -4 45 24 59 45 85 66 85 15 0 18 -5 13 -22z m201 -183 c15 -38 -68 -175 -107 -175 -44 0 -10 124 47 169 31 25 52 27 60 6z"/> <path d="M3900 1458 c-51 -26 -75 -47 -110 -95 -25 -34 -50 -62 -56 -62 -21 -2 -54 45 -54 78 0 39 -20 38 -35 -3 -12 -34 -1 -53 47 -84 34 -23 35 -25 26 -60 -6 -20 -8 -61 -6 -91 4 -45 10 -59 36 -82 62 -55 146 -46 231 27 37 32 42 34 48 17 12 -33 36 -53 66 -53 32 0 92 32 106 57 4 9 22 22 40 29 30 13 31 13 31 -15 0 -59 75 -90 139 -56 29 15 111 101 111 116 0 20 -20 7 -40 -26 -65 -105 -183 -100 -151 7 14 46 66 108 91 108 27 0 36 -21 17 -35 -23 -17 -21 -35 3 -35 28 0 45 36 31 66 -9 20 -18 24 -53 24 -40 0 -47 -4 -110 -72 -37 -40 -69 -70 -72 -67 -2 2 0 23 7 46 9 34 8 45 -6 66 -13 21 -25 26 -56 25 -57 -1 -92 -26 -145 -107 -55 -82 -83 -107 -139 -122 -82 -22 -127 12 -127 95 0 92 8 102 83 110 153 17 276 126 220 195 -32 40 -96 39 -173 -1z m145 -19 c18 -57 -84 -137 -186 -146 l-62 -6 19 34 c33 58 107 125 150 136 49 12 72 6 79 -18z m164 -183 c13 -16 -1 -90 -19 -101 -23 -14 -39 60 -20 96 13 23 23 24 39 5z m-66 -38 c-4 -34 0 -48 17 -66 l21 -22 -26 -26 c-36 -36 -69 -30 -73 15 -5 47 4 74 34 110 14 17 27 31 29 31 1 0 0 -19 -2 -42z"/> <path d="M3178 1365 c-21 -20 -38 -37 -38 -40 0 -11 23 -4 50 17 l29 21 20 -24 c10 -13 22 -21 26 -18 10 10 -22 79 -37 79 -7 0 -30 -16 -50 -35z"/> <path d="M2095 1359 l-20 -22 24 6 c14 3 44 1 68 -6 39 -10 45 -9 65 10 l21 22 -34 0 c-19 0 -50 3 -69 6 -29 5 -39 3 -55 -16z"/> <path d="M4817 1364 c-4 -4 -7 -21 -7 -38 0 -17 -9 -40 -22 -53 -28 -29 -11 -30 33 0 28 19 34 29 34 57 0 33 -20 51 -38 34z"/> <path d="M1187 1343 c-27 -26 21 -103 63 -103 l21 0 -21 22 c-12 13 -20 35 -20 55 0 25 -4 33 -18 33 -10 0 -22 -3 -25 -7z"/> <path d="M4886 1276 c-9 -14 -31 -32 -49 -40 l-32 -14 28 -11 c15 -6 38 -22 52 -36 23 -25 23 -26 30 -5 3 11 20 27 38 36 29 16 30 17 12 30 -10 8 -22 14 -27 14 -4 0 -13 12 -21 26 l-14 26 -17 -26z"/> <path d="M2040 1242 c-57 -56 -79 -116 -58 -160 18 -37 57 -41 94 -9 l28 25 11 -22 c23 -46 75 -25 129 53 15 22 26 45 24 52 -2 6 -20 -14 -41 -45 -24 -37 -44 -56 -57 -56 -27 0 -25 12 15 105 32 74 41 105 31 105 -3 0 -16 -4 -30 -10 -16 -6 -27 -6 -31 0 -4 6 -20 10 -37 10 -23 0 -42 -11 -78 -48z m107 12 c8 -22 -16 -90 -49 -135 -49 -68 -92 -42 -64 39 20 55 45 92 70 102 30 13 36 12 43 -6z"/> <path d="M1125 1260 c-4 -11 -20 -27 -36 -35 -16 -9 -29 -18 -29 -20 0 -2 13 -11 29 -20 16 -8 33 -25 37 -37 l7 -22 17 21 c9 12 32 31 50 42 l34 20 -26 10 c-14 5 -34 21 -46 35 -24 31 -29 32 -37 6z"/> <path d="M4704 1236 c-8 -21 3 -36 27 -36 15 0 20 6 17 22 -4 27 -35 37 -44 14z"/> <path d="M1301 1226 c-16 -19 -7 -46 14 -46 22 0 30 29 13 46 -13 13 -16 13 -27 0z"/> <path d="M4796 1165 c18 -18 23 -31 18 -50 -8 -32 22 -47 42 -20 23 32 -23 95 -70 95 -11 0 -8 -7 10 -25z"/> <path d="M1233 1165 c-36 -15 -56 -46 -51 -78 2 -14 10 -22 23 -22 16 0 21 8 23 35 2 19 13 45 24 58 25 26 24 26 -19 7z"/> <path d="M3071 1001 c-8 -14 -7 -22 5 -32 14 -11 18 -10 29 5 16 21 9 46 -11 46 -7 0 -18 -9 -23 -19z"/> <path d="M4057 1013 c-11 -10 -8 -41 4 -49 16 -9 43 21 36 40 -7 16 -28 21 -40 9z"/> </g> </svg>