<?xml version="1.0" standalone="no"?> <!DOCTYPE svg PUBLIC "-//W3C//DTD SVG 20010904//EN" "http://www.w3.org/TR/2001/REC-SVG-20010904/DTD/svg10.dtd"> <svg version="1.0" xmlns="http://www.w3.org/2000/svg" width="600.000000pt" height="600.000000pt" viewBox="0 0 600.000000 600.000000" preserveAspectRatio="xMidYMid meet"> <g transform="translate(0.000000,600.000000) scale(0.100000,-0.100000)" fill="#14305b" stroke="none"> <path d="M4435 5283 c-22 -1 -827 -4 -1790 -5 l-1750 -3 -42 -23 c-58 -31 -120 -111 -128 -165 -3 -23 -5 -997 -3 -2164 l3 -2121 30 -44 31 -43 2206 -3 2206 -2 31 26 c17 14 35 42 41 62 8 26 10 694 8 2182 l-3 2145 -22 40 c-30 56 -81 101 -128 114 -36 10 -578 13 -690 4z m642 -128 c78 -30 80 -40 87 -415 3 -179 9 -1116 12 -2082 l7 -1756 -22 -45 c-14 -30 -33 -50 -54 -60 -33 -15 -211 -17 -3477 -29 l-695 -3 -37 23 c-21 13 -41 36 -47 54 -8 22 -11 643 -11 2115 -1 1985 0 2086 17 2115 10 17 29 39 43 49 27 20 -96 18 2410 35 503 3 916 7 917 8 1 0 183 2 404 4 356 3 408 1 446 -13z"/> <path d="M4900 5094 c-19 -2 -748 -5 -1620 -7 -2532 -7 -2280 -4 -2318 -27 -67 -41 -62 113 -62 -2102 0 -1937 1 -2015 19 -2054 13 -28 30 -46 57 -60 38 -19 76 -19 1534 -16 966 1 1496 6 1498 12 2 6 181 10 490 10 305 0 501 4 524 10 24 7 48 24 65 47 l28 37 0 410 c0 226 -4 1135 -8 2020 -9 1765 -5 1669 -67 1701 -32 16 -89 24 -140 19z m125 -57 c19 -14 20 -30 25 -219 7 -241 16 -2591 13 -3198 -1 -234 -3 -482 -3 -552 0 -115 -2 -129 -20 -146 -20 -18 -74 -19 -1773 -26 -963 -3 -1865 -9 -2003 -12 -270 -7 -287 -5 -305 42 -10 28 -14 4040 -3 4068 4 9 16 22 28 28 31 18 454 23 2346 26 1475 3 1677 2 1695 -11z m-766 -4162 c-7 -7 -1870 -7 -1877 -1 -3 3 419 6 938 6 519 0 941 -2 939 -5z m-2216 -32 c-13 -2 -33 -2 -45 0 -13 2 -3 4 22 4 25 0 35 -2 23 -4z m110 0 c-13 -2 -35 -2 -50 0 -16 2 -5 4 22 4 28 0 40 -2 28 -4z"/> <path d="M4286 4789 c-12 -18 -14 -40 -9 -109 5 -81 4 -89 -17 -110 -28 -28 -76 -23 -123 13 -172 130 -306 194 -347 167 -22 -15 33 -63 150 -132 252 -150 341 -291 343 -548 2 -187 -60 -354 -177 -473 -62 -63 -166 -127 -206 -127 -22 0 -23 2 -17 78 4 42 11 147 17 232 5 85 17 220 26 300 17 155 16 331 -1 337 -6 2 -21 -17 -33 -42 -19 -39 -26 -45 -53 -45 -32 0 -46 12 -142 118 -28 32 -45 42 -67 42 -54 0 -36 -50 51 -145 108 -117 140 -180 107 -213 -31 -31 -57 -10 -157 130 -60 85 -100 120 -152 133 -42 10 -44 -12 -5 -55 52 -57 49 -74 -11 -66 -27 4 -74 10 -106 13 -53 5 -59 4 -55 -12 2 -11 56 -51 127 -95 199 -124 267 -193 317 -327 24 -62 26 -77 21 -183 -5 -128 -31 -228 -76 -294 -41 -61 -72 -80 -131 -78 -78 2 -129 49 -215 203 -98 174 -157 231 -185 178 -9 -16 -7 -29 11 -62 65 -125 131 -287 136 -335 4 -36 17 -69 39 -105 18 -29 42 -71 53 -94 40 -85 74 -83 215 11 61 41 163 98 226 127 407 185 516 288 659 619 72 167 101 275 107 400 6 125 -3 150 -40 108 -24 -26 -35 -56 -75 -193 -12 -38 -30 -85 -41 -102 -20 -33 -48 -44 -52 -20 -1 6 -2 138 -3 292 -1 294 -11 377 -52 448 -23 39 -37 43 -57 16z"/> <path d="M1645 4759 c-41 -78 -54 -265 -39 -571 5 -122 4 -161 -6 -173 -26 -32 -59 23 -109 183 -32 103 -68 161 -89 148 -17 -10 -15 -145 2 -227 21 -97 62 -210 121 -335 56 -119 129 -234 147 -234 6 0 9 -3 5 -6 -15 -15 81 -106 178 -169 94 -61 334 -175 369 -175 13 0 35 -9 48 -20 12 -11 65 -47 115 -80 89 -58 126 -98 191 -204 10 -16 12 -69 9 -229 l-4 -208 43 42 c37 36 41 45 33 66 -12 33 -12 273 1 273 18 0 39 -44 66 -140 44 -157 78 -200 159 -200 69 0 115 45 115 112 0 65 -78 115 -128 82 -30 -19 -37 -40 -22 -59 17 -21 30 -19 30 5 0 23 32 43 55 34 17 -7 45 -54 45 -77 0 -26 -41 -67 -66 -67 -56 0 -72 23 -134 188 -19 50 -45 96 -66 119 l-35 36 25 26 c37 39 65 100 81 177 l15 69 -37 33 c-20 17 -39 30 -41 27 -3 -3 0 -11 6 -17 7 -7 12 -41 12 -78 0 -76 -28 -170 -65 -215 l-25 -30 0 106 c0 152 41 301 152 552 48 108 59 143 51 155 -30 48 -78 5 -159 -141 -88 -157 -124 -207 -168 -229 -53 -27 -126 -21 -162 13 -66 62 -111 185 -121 335 -14 211 62 345 273 481 136 88 184 124 184 140 0 13 -8 14 -47 9 -143 -19 -163 -19 -163 -2 0 9 16 34 36 56 30 33 33 41 20 46 -48 19 -100 -23 -197 -157 -76 -106 -107 -131 -134 -109 -35 29 -6 93 101 217 74 87 95 126 77 144 -19 19 -73 -13 -124 -74 -63 -76 -82 -89 -116 -85 -19 2 -33 14 -49 43 -12 22 -25 40 -30 40 -16 0 -25 -62 -19 -135 3 -41 12 -127 20 -190 8 -63 19 -176 24 -250 15 -193 33 -333 43 -347 7 -9 2 -14 -17 -19 -46 -11 -140 41 -221 123 -125 127 -185 278 -187 473 -1 122 16 197 67 297 47 94 120 160 286 262 142 87 182 140 98 127 -61 -9 -128 -44 -243 -126 -105 -74 -130 -86 -168 -76 -37 9 -49 49 -42 132 9 88 2 114 -30 114 -17 0 -29 -9 -40 -31z m530 -718 c0 -6 7 -16 15 -21 9 -6 10 -10 3 -10 -14 0 -43 28 -43 42 0 5 6 8 13 6 6 -3 12 -10 12 -17z m-5 -583 c1 -2 3 -21 6 -43 4 -22 11 -44 18 -48 7 -6 4 -7 -7 -3 -10 3 -30 6 -43 6 -27 0 -31 12 -9 34 8 8 15 24 15 35 0 12 5 21 10 21 6 0 10 -1 10 -2z"/> <path d="M3240 3163 c-64 -23 -101 -117 -108 -271 -8 -183 28 -297 93 -297 41 0 65 51 77 162 12 114 12 116 -42 117 -39 1 -45 -2 -48 -22 -3 -18 1 -22 20 -20 22 3 23 0 26 -67 4 -88 -4 -135 -24 -135 -21 0 -32 38 -46 146 -10 80 -10 109 5 198 9 57 22 116 29 130 18 41 41 28 53 -29 8 -36 13 -45 18 -32 12 31 8 81 -9 105 -16 23 -19 24 -44 15z"/> <path d="M2823 3076 c9 -62 3 -299 -8 -329 -6 -14 -1 -15 32 -10 21 3 39 6 40 7 1 1 -3 26 -9 56 -10 52 -4 262 7 292 4 10 -7 20 -33 30 l-38 15 9 -61z"/> <path d="M3955 3108 c-10 -6 -62 -20 -113 -30 -110 -22 -172 -51 -260 -121 -64 -50 -82 -77 -82 -123 0 -32 10 -30 62 9 54 42 131 87 146 87 43 0 -46 -93 -131 -136 -50 -26 -67 -52 -67 -105 0 -30 17 -40 26 -14 7 16 99 65 125 65 41 0 186 85 244 144 69 69 93 114 102 186 5 45 4 50 -13 50 -10 0 -28 -6 -39 -12z"/> <path d="M3073 3102 c-10 -6 -10 -17 -3 -42 12 -40 14 -280 3 -280 -5 0 -28 71 -53 158 l-45 157 -33 3 c-31 3 -33 2 -23 -17 14 -26 14 -296 1 -322 -8 -15 -7 -19 4 -19 8 0 22 -3 31 -7 15 -5 16 -3 6 15 -7 14 -11 61 -9 124 l3 103 22 -75 c12 -41 31 -109 43 -150 11 -41 27 -98 35 -127 10 -35 22 -54 35 -58 31 -10 44 4 25 25 -15 17 -17 44 -13 247 2 158 8 235 16 251 12 20 11 22 -10 22 -13 0 -29 -4 -35 -8z"/> <path d="M2012 3056 c16 -143 148 -262 365 -331 81 -25 100 -40 144 -105 23 -34 33 -19 33 44 0 66 -9 78 -93 121 -111 56 -200 148 -122 125 41 -11 68 -27 134 -76 33 -24 63 -41 68 -38 21 13 8 65 -23 97 -42 42 -97 82 -125 91 -13 4 -23 11 -23 15 0 17 -108 54 -192 67 -48 7 -96 18 -107 23 -11 6 -30 11 -42 11 -20 0 -21 -4 -17 -44z m235 -140 c4 -5 -5 -6 -20 -2 -16 4 -26 3 -23 -2 2 -4 1 -14 -3 -21 -6 -9 -8 -4 -8 13 0 22 4 26 23 23 13 -2 27 -7 31 -11z"/> <path d="M3323 3084 c-3 -8 0 -26 7 -39 7 -13 10 -32 6 -41 -6 -16 -5 -16 14 1 22 20 27 64 8 83 -16 16 -27 15 -35 -4z"/> <path d="M3367 2972 c-49 -54 -43 -116 19 -207 48 -70 71 -137 60 -178 -13 -55 -97 -62 -117 -10 -22 58 18 107 52 64 20 -25 39 -20 39 9 0 30 -42 53 -73 41 -33 -13 -47 -39 -47 -89 0 -66 61 -105 123 -78 89 37 98 147 22 253 -56 76 -78 129 -67 161 7 21 15 27 38 27 22 0 30 -5 32 -22 2 -16 -2 -23 -12 -23 -9 0 -16 -8 -16 -20 0 -27 45 -27 60 -1 31 60 -67 124 -113 73z"/> <path d="M3157 2534 c-2 -2 1 -30 6 -61 10 -63 -4 -436 -17 -466 -8 -16 -1 -17 95 -11 57 4 108 10 112 14 10 9 28 83 21 89 -2 3 -11 -5 -20 -17 -19 -27 -58 -48 -108 -58 l-39 -7 7 184 c7 177 16 270 31 315 6 19 3 21 -39 21 -25 0 -47 -1 -49 -3z"/> <path d="M2674 2495 c-58 -88 -35 -399 40 -542 35 -67 92 -90 112 -45 4 9 9 81 12 158 l4 142 -48 -5 c-59 -7 -58 -6 -49 -34 6 -17 9 -19 16 -8 15 25 28 -3 42 -95 15 -93 13 -126 -8 -126 -31 0 -80 178 -94 346 -10 115 -5 178 15 195 24 20 39 0 74 -95 16 -44 21 -26 10 38 -11 71 -31 96 -76 96 -25 0 -38 -7 -50 -25z"/> <path d="M3052 2473 c6 -21 8 -112 6 -210 l-3 -173 38 0 c35 0 38 2 30 23 -4 12 -7 106 -5 210 l2 187 -39 0 -39 0 10 -37z"/> <path d="M3273 2372 c-3 -133 -11 -226 -24 -260 -8 -21 -7 -23 13 -16 13 4 39 15 58 25 19 11 43 19 52 19 18 0 21 10 32 80 4 30 3 32 -7 16 -7 -10 -21 -32 -32 -50 -12 -17 -28 -32 -38 -34 -16 -3 -17 4 -12 70 8 102 25 236 31 253 5 12 -3 15 -32 15 l-39 0 -2 -118z"/> <path d="M2920 2463 c-92 -14 -92 -14 -79 -29 15 -18 30 -415 19 -488 -4 -25 -5 -46 -2 -46 3 0 22 5 44 12 29 9 37 15 32 27 -4 9 -9 68 -12 131 -4 102 -3 113 11 102 8 -7 25 -38 38 -70 29 -72 76 -150 97 -161 10 -5 37 -12 62 -16 25 -4 66 -18 91 -32 26 -14 55 -23 65 -21 27 5 48 52 34 78 -14 25 -26 26 -33 0 -13 -49 -124 -26 -187 39 -19 20 -49 64 -67 96 -17 33 -42 71 -54 84 l-23 24 26 22 c67 57 64 230 -4 249 -13 3 -25 5 -28 5 -3 -1 -16 -3 -30 -6z m51 -65 c13 -51 6 -125 -16 -168 -29 -56 -40 -32 -43 93 l-3 117 25 0 c21 0 27 -7 37 -42z"/> <path d="M2903 1869 c-107 -42 -120 -112 -36 -190 47 -44 92 -62 157 -61 98 0 169 39 207 113 29 59 14 100 -49 131 -67 33 -205 36 -279 7z"/> <path d="M2330 1511 c-73 -23 -169 -100 -211 -167 -25 -41 -32 -42 -64 -9 -17 16 -25 35 -25 60 0 19 -4 35 -10 35 -13 0 -30 -34 -30 -62 0 -25 47 -78 67 -78 21 0 24 -19 12 -79 -23 -110 25 -189 119 -199 65 -6 110 10 166 59 43 38 45 39 36 14 -15 -38 -13 -45 14 -45 20 0 30 13 63 83 42 87 95 150 122 145 20 -4 16 -39 -11 -93 -46 -89 -41 -135 13 -135 25 0 41 10 71 42 30 33 38 37 38 22 0 -35 37 -64 81 -64 33 0 48 7 88 45 26 25 55 45 64 45 21 0 84 56 75 66 -4 3 -24 -8 -44 -25 -20 -18 -37 -31 -39 -29 -8 9 21 118 32 118 6 0 19 10 27 22 26 37 -14 79 -43 45 -8 -10 -7 -17 1 -25 17 -17 0 -28 -22 -14 -25 16 -102 8 -134 -14 -15 -9 -51 -54 -81 -100 -57 -88 -91 -117 -101 -89 -4 9 8 48 26 87 40 86 35 121 -17 126 -25 3 -41 -5 -74 -35 -42 -38 -42 -38 -26 -8 8 17 39 47 69 67 58 41 93 86 102 133 8 39 -5 58 -39 58 -59 0 -115 -74 -180 -236 -45 -112 -86 -171 -144 -205 -58 -34 -131 -36 -162 -5 -27 26 -36 101 -20 161 l12 42 48 0 c81 0 175 35 226 84 39 37 45 48 45 83 0 27 -6 46 -19 57 -22 20 -84 29 -121 17z m88 -33 c18 -18 15 -49 -8 -86 -24 -39 -120 -87 -192 -96 -59 -7 -60 1 -13 70 64 92 175 150 213 112z m232 -11 c0 -39 -89 -161 -105 -145 -8 8 33 99 61 135 29 39 44 42 44 10z m179 -220 c-14 -31 -4 -96 17 -104 20 -8 18 -20 -11 -48 -51 -52 -97 -15 -76 62 11 39 68 129 77 120 3 -2 0 -16 -7 -30z m71 -14 c-1 -49 -22 -90 -37 -71 -31 39 -20 108 17 108 17 0 20 -6 20 -37z"/> <path d="M3459 1506 c-77 -27 -172 -109 -201 -171 -14 -32 -32 -32 -63 0 -17 16 -25 35 -25 60 0 38 -14 46 -30 16 -24 -47 -4 -86 65 -126 15 -9 16 -16 5 -71 -22 -114 23 -192 118 -202 67 -6 112 11 172 65 43 39 50 42 50 24 0 -12 10 -31 21 -42 17 -17 30 -20 66 -16 36 4 54 13 87 46 23 22 49 41 57 41 8 0 20 5 27 12 9 9 12 4 12 -24 0 -66 79 -100 149 -63 30 15 121 111 121 126 0 19 -18 7 -49 -32 -62 -77 -127 -99 -157 -54 -13 20 -14 30 -4 62 25 76 95 142 122 115 9 -9 6 -18 -11 -36 -25 -26 -15 -42 19 -31 21 7 34 41 28 72 -2 13 -14 19 -46 21 -55 4 -94 -20 -148 -90 -49 -64 -78 -76 -63 -26 24 85 0 121 -74 114 -60 -5 -99 -34 -136 -100 -76 -132 -214 -195 -277 -125 -24 27 -30 115 -11 162 15 34 19 37 58 37 132 0 272 88 272 171 0 65 -70 95 -154 65z m99 -28 c36 -36 -8 -108 -91 -147 -70 -32 -157 -48 -157 -28 0 25 71 117 112 145 60 41 113 53 136 30z m122 -227 c-16 -30 -12 -66 11 -94 16 -21 18 -31 9 -46 -14 -28 -46 -43 -72 -36 -18 6 -20 13 -16 59 4 51 47 136 68 136 7 0 7 -6 0 -19z m70 -15 c0 -19 -5 -47 -10 -61 -9 -23 -13 -25 -25 -15 -15 13 -20 65 -9 94 3 9 15 16 25 16 15 0 19 -7 19 -34z"/> <path d="M2832 1418 c-20 -20 -14 -36 25 -63 51 -34 59 -32 32 13 -34 56 -43 64 -57 50z"/> <path d="M4817 1363 c-4 -3 -7 -20 -7 -37 0 -16 -9 -40 -21 -52 l-21 -23 23 6 c50 12 91 72 68 99 -12 15 -31 18 -42 7z"/> <path d="M1192 1348 c-21 -21 -14 -65 14 -87 15 -12 35 -21 46 -21 18 0 18 1 -2 22 -11 12 -20 27 -21 32 -1 6 -2 22 -2 35 -2 28 -17 37 -35 19z"/> <path d="M4891 1282 c-6 -12 -28 -30 -48 -41 l-37 -18 34 -18 c19 -10 42 -27 52 -39 l18 -21 6 23 c4 12 20 30 37 39 l31 16 -25 19 c-13 11 -31 29 -40 40 l-17 21 -11 -21z"/> <path d="M1130 1265 c0 -9 -16 -25 -35 -36 -19 -12 -35 -23 -35 -25 0 -2 13 -10 29 -19 16 -8 32 -24 36 -35 8 -26 19 -25 34 4 7 13 27 30 44 38 l32 16 -37 18 c-21 9 -40 26 -44 36 -7 22 -24 24 -24 3z"/> <path d="M4704 1235 c-8 -20 4 -35 26 -35 25 0 35 17 20 35 -16 19 -39 19 -46 0z"/> <path d="M1294 1226 c-9 -24 4 -48 23 -44 12 2 18 12 18 28 0 29 -32 41 -41 16z"/> <path d="M4789 1174 c12 -15 21 -40 21 -56 0 -34 25 -47 48 -25 21 22 4 60 -40 87 -45 27 -53 25 -29 -6z"/> <path d="M1235 1171 c-56 -23 -76 -102 -27 -109 19 -3 22 1 22 31 0 20 9 46 21 61 21 27 18 30 -16 17z"/> <path d="M3586 995 c-17 -17 -12 -40 9 -49 14 -5 45 18 45 33 0 9 -22 31 -31 31 -4 0 -14 -7 -23 -15z"/> </g> </svg>